# xmcd
#
# Track frame offsets: 
#        150
#        450
#        21180
#        42267
#        61891
#        78213
#        102149
#        119390
#        138658
#        154861
#        178964
#        208514
#        230318
#
# Disc length: 3376 seconds
#
# Revision: 0
# Processed by: cddbd v1.5.2PL0 Copyright (c) Steve Scherf et al.
# Submitted via: ExactAudioCopy v1.3
#
DISCID=a20d2e0d
DTITLE=Billy Price - Reckoning
DYEAR=2018
DGENRE=Modern Electric Blues
TTITLE0=39 Steps
TTITLE1=Dreamer
TTITLE2=Reckoning
TTITLE3=No Time
TTITLE4=I Love You More Than Words Can Say
TTITLE5=I Keep Holding On
TTITLE6=One And One
TTITLE7=Get Your Lie Straight
TTITLE8=Never Be Fooled Again
TTITLE9=Expert Witness
TTITLE10=Love Ballad
TTITLE11=Synthetic World
TTITLE12=Your Love Stays With Me
EXTD=
EXTT0=
EXTT1=
EXTT2=
EXTT3=
EXTT4=
EXTT5=
EXTT6=
EXTT7=
EXTT8=
EXTT9=
EXTT10=
EXTT11=
EXTT12=
PLAYORDER=
